ffmpeg version 6.0 Copyright (c) 2000-2023 the FFmpeg developers
  built with Apple clang version 14.0.3 (clang-1403.0.22.14.1)
  configuration: --prefix=/opt/homebrew/Cellar/ffmpeg/6.0 --enable-shared --enable-pthreads --enable-version3 --cc=clang --host-cflags= --host-ldflags= --enable-ffplay --enable-gnutls --enable-gpl --enable-libaom --enable-libaribb24 --enable-libbluray --enable-libdav1d --enable-libmp3lame --enable-libopus --enable-librav1e --enable-librist --enable-librubberband --enable-libsnappy --enable-libsrt --enable-libsvtav1 --enable-libtesseract --enable-libtheora --enable-libvidstab --enable-libvmaf --enable-libvorbis --enable-libvpx --enable-libwebp --enable-libx264 --enable-libx265 --enable-libxml2 --enable-libxvid --enable-lzma --enable-libfontconfig --enable-libfreetype --enable-frei0r --enable-libass --enable-libopencore-amrnb --enable-libopencore-amrwb --enable-libopenjpeg --enable-libspeex --enable-libsoxr --enable-libzmq --enable-libzimg --disable-libjack --disable-indev=jack --enable-videotoolbox --enable-audiotoolbox --enable-neon
  libavutil      58.  2.100 / 58.  2.100
  libavcodec     60.  3.100 / 60.  3.100
  libavformat    60.  3.100 / 60.  3.100
  libavdevice    60.  1.100 / 60.  1.100
  libavfilter     9.  3.100 /  9.  3.100
  libswscale      7.  1.100 /  7.  1.100
  libswresample   4. 10.100 /  4. 10.100
  libpostproc    57.  1.100 / 57.  1.100
[mp3 @ 0x12c6348f0] Estimating duration from bitrate, this may be inaccurate
Input #0, mp3, from '/Users/thinhnguyen/Downloads/evil-laugh-49831.mp3':
  Duration: 00:00:03.58, start: 0.000000, bitrate: 256 kb/s
  Stream #0:0: Audio: mp3, 44100 Hz, mono, fltp, 256 kb/s
[mp3 @ 0x12c643760] Estimating duration from bitrate, this may be inaccurate
Input #1, mp3, from '/Users/thinhnguyen/Downloads/possessed-laugh-94851.mp3':
  Duration: 00:00:04.87, start: 0.000000, bitrate: 160 kb/s
  Stream #1:0: Audio: mp3, 24000 Hz, stereo, fltp, 160 kb/s
Stream mapping:
  Stream #0:0 (mp3float) -> concat
  Stream #1:0 (mp3float) -> concat
  concat:out:a0 -> Stream #0:0 (libmp3lame)
Press [q] to stop, [?] for help
Output #0, mp3, to '/Users/thinhnguyen/Documents/projects/audio-video-processer/output.mp3':
  Metadata:
    TSSE            : Lavf60.3.100
  Stream #0:0: Audio: mp3, 44100 Hz, mono, fltp
    Metadata:
      encoder         : Lavc60.3.100 libmp3lame
size=       0kB time=-577014:32:22.77 bitrate=  -0.0kbits/s speed=N/A    size=      67kB time=00:00:08.43 bitrate=  64.6kbits/s speed= 114x    
video:0kB audio:66kB subtitle:0kB other streams:0kB global headers:0kB muxing overhead: 0.332754%
